<svg xmlns="http://www.w3.org/2000/svg" viewBox="0 0 500 500"><g id="freepik--Floor--inject-74"><path id="freepik--floor--inject-74" d="M77.67,445.19c-95.18-54.95-95.18-144,0-199s249.49-54.95,344.66,0,95.18,144,0,199S172.84,500.14,77.67,445.19Z" style="fill:#fafafa"></path></g><g id="freepik--Shadows--inject-74"><path id="freepik--Shadow--inject-74" d="M434.9,342c-11.24,6.49-11.24,17,0,23.5s29.46,6.49,40.7,0,11.24-17,0-23.5S446.14,335.55,434.9,342Z" style="fill:#ebebeb"></path><path id="freepik--shadow--inject-74" d="M66.8,348.08c8.75,5.11,8.75,13.39,0,18.49s-22.92,5.11-31.67,0-8.74-13.38,0-18.49S58.06,343,66.8,348.08Z" style="fill:#ebebeb"></path><ellipse id="freepik--shadow--inject-74" cx="409.93" cy="417.77" rx="73.19" ry="42.26" style="fill:#ebebeb"></ellipse><ellipse id="freepik--shadow--inject-74" cx="106.09" cy="417.77" rx="73.19" ry="42.26" style="fill:#ebebeb"></ellipse><path id="freepik--shadow--inject-74" d="M192.81,358.89,333.45,440c1.55.89,1.55,2.34,0,3.23l-20.66,11.9a6.21,6.21,0,0,1-5.6,0L166.55,374c-1.55-.89-1.55-2.34,0-3.23l20.66-11.9A6.21,6.21,0,0,1,192.81,358.89Z" style="fill:#ebebeb"></path></g><g id="freepik--Pictures--inject-74"><g id="freepik--Picture--inject-74"><g id="freepik--Frame--inject-74"><polygon points="142.67 155.1 144.44 156.16 180.76 135.19 178.99 134.13 142.67 155.1" style="fill:#fafafa"></polygon><polygon points="178.99 134.13 144.44 154.08 144.44 46.83 178.99 26.9 178.99 134.13" style="fill:#fff"></polygon><path d="M184.1,20.08l-43,24.82v117l43-24.82Zm-3.34,115.11-36.32,21V46.83l36.32-21Z" style="fill:#f0f0f0"></path><polygon points="180.76 135.19 178.99 134.13 178.99 26.9 180.76 25.86 180.76 135.19" style="fill:#e0e0e0"></polygon><polygon points="184.1 20.08 182.3 19.05 139.3 43.88 141.1 44.9 184.1 20.08" style="fill:#fafafa"></polygon><polygon points="139.3 43.88 141.1 44.9 141.1 161.94 139.3 160.91 139.3 43.88" style="fill:#e0e0e0"></polygon></g><g id="freepik--Land--inject-74"><polygon points="176.4 132.07 147.03 149.02 147.03 49.95 176.4 33 176.4 132.07" style="fill:#f0f0f0"></polygon></g><g id="freepik--land--inject-74"><polygon points="176.4 132.07 147.03 149.02 147.03 49.95 176.4 33 176.4 132.07" style="fill:#f0f0f0"></polygon></g><path d="M147,120.54a28,28,0,0,0,4.2,0,53.08,53.08,0,0,0,14.3-3.11c3.55-1.31,7.11-3,10.87-3.12v17.79l-4,2.29a13.34,13.34,0,0,0-5.45-3c-5.66-1.49-11.46,1.35-17.28,2a23.57,23.57,0,0,1-2.66.13Z" style="fill:#fafafa"></path><path d="M147,85.61c6.57-1.94,13.31-3.56,18-8.38,3.78-3.89,5.56-9.27,6.8-14.54s2.1-10.73,4.49-15.59a1,1,0,0,1,.08-.14V99.9c-.37.55-.74,1.1-1.13,1.63-4.32,5.85-10.67,10.73-17.93,11.11-3.41.17-6.93-.63-10.31-.61Z" style="fill:#fafafa"></path><path d="M147,66.07a20,20,0,0,0,6.51-18.21c-.09-.5-.21-1-.33-1.47l11.29-6.52c0,.74-.08,1.48-.1,2.22-.12,4.32,0,8.69-.92,12.89a25.38,25.38,0,0,1-12.87,16.64A24.35,24.35,0,0,1,147,73.11Z" style="fill:#fafafa"></path></g><g id="freepik--picture--inject-74"><g id="freepik--frame--inject-74"><polygon points="365.12 73.97 363.58 74.88 332.18 56.74 333.7 55.83 365.12 73.97" style="fill:#fafafa"></polygon><polygon points="333.7 55.83 363.58 73.08 363.58 41.79 333.7 24.55 333.7 55.83" style="fill:#fff"></polygon><path d="M329.29,58.41l37.18,21.47V40.12L329.29,18.65Zm2.88-34.76,31.41,18.14V74.88L332.17,56.74Z" style="fill:#f0f0f0"></path><polygon points="332.18 56.74 333.7 55.83 333.7 24.55 332.17 23.65 332.18 56.74" style="fill:#e0e0e0"></polygon><polygon points="329.29 18.65 330.84 17.76 368.03 39.23 366.47 40.12 329.29 18.65" style="fill:#fafafa"></polygon><polygon points="368.03 39.23 366.47 40.12 366.47 79.88 368.03 78.99 368.03 39.23" style="fill:#e0e0e0"></polygon></g><g id="freepik--land--inject-74"><polygon points="334.87 54.89 362.42 70.8 362.42 62.85 355.53 46.94 351.24 50.92 352.78 57.58 343.27 37.24 334.87 46.94 334.87 54.89" style="fill:#f0f0f0"></polygon><path d="M351.5,39.26a4.52,4.52,0,0,1,2,3.53c0,1.3-.92,1.83-2,1.18a4.49,4.49,0,0,1-2-3.53C349.46,39.14,350.37,38.61,351.5,39.26Z" style="fill:#f0f0f0"></path></g></g><g id="freepik--picture--inject-74"><g id="freepik--frame--inject-74"><polygon points="333.57 106.62 332.04 107.53 300.63 89.4 302.16 88.49 333.57 106.62" style="fill:#fafafa"></polygon><polygon points="302.16 88.49 332.04 105.73 332.04 74.44 302.16 57.21 302.16 88.49" style="fill:#fff"></polygon><path d="M297.74,91.07l37.19,21.47V72.78L297.74,51.31Zm2.89-34.76L332,74.45v33.09L300.63,89.4Z" style="fill:#f0f0f0"></path><polygon points="300.63 89.4 302.16 88.49 302.16 57.21 300.63 56.31 300.63 89.4" style="fill:#e0e0e0"></polygon><polygon points="297.74 51.31 299.3 50.42 336.49 71.89 334.93 72.78 297.74 51.31" style="fill:#fafafa"></polygon><polygon points="336.49 71.89 334.93 72.78 334.93 112.54 336.49 111.65 336.49 71.89" style="fill:#e0e0e0"></polygon></g><g id="freepik--land--inject-74"><polygon points="303.33 87.55 330.88 103.46 330.88 95.5 323.99 79.6 319.7 83.58 321.24 90.24 311.73 69.9 303.33 79.6 303.33 87.55" style="fill:#f0f0f0"></polygon><path d="M320,71.92a4.52,4.52,0,0,1,2,3.53c0,1.3-.92,1.83-2,1.18a4.49,4.49,0,0,1-2-3.53C317.92,71.8,318.83,71.27,320,71.92Z" style="fill:#f0f0f0"></path></g></g></g><g id="freepik--Windows--inject-74"><g id="freepik--Window--inject-74"><g id="freepik--window--inject-74"><g id="freepik--frame--inject-74"><polygon points="34.15 231.38 36.27 232.65 108.4 191 106.28 189.74 34.15 231.38" style="fill:#fafafa"></polygon><polygon points="106.28 189.74 36.27 230.15 36.27 68.86 106.28 28.46 106.28 189.74" style="fill:#fff"></polygon><path d="M112.41,20.28,32.27,66.55v173l80.14-46.27ZM108.4,191,36.27,232.65V68.86L108.4,27.22Z" style="fill:#f0f0f0"></path><polygon points="108.4 191 106.28 189.74 106.28 28.46 108.4 27.22 108.4 191" style="fill:#e0e0e0"></polygon><polygon points="36.27 174.04 36.27 176.53 108.4 134.88 106.28 133.61 36.27 174.04" style="fill:#fafafa"></polygon><polygon points="36.27 117.89 36.27 120.38 108.4 78.73 106.28 77.47 36.27 117.89" style="fill:#fafafa"></polygon><polygon points="112.41 20.29 110.25 19.05 30.11 65.32 32.27 66.55 112.41 20.29" style="fill:#fafafa"></polygon><polygon points="30.11 65.32 32.27 66.55 32.27 239.58 30.11 238.34 30.11 65.32" style="fill:#e0e0e0"></polygon><polygon points="67.12 51.05 69.28 49.81 69.28 213.6 67.12 212.37 67.12 51.05" style="fill:#e0e0e0"></polygon></g><polygon points="73.28 47.51 69.28 49.81 69.28 213.6 73.28 211.28 73.28 47.51" style="fill:#f0f0f0"></polygon><polygon points="112.41 76.42 112.41 81.04 32.27 127.3 32.27 122.69 112.41 76.42" style="fill:#f0f0f0"></polygon><polygon points="112.41 132.56 112.41 137.17 32.27 183.44 32.27 178.82 112.41 132.56" style="fill:#f0f0f0"></polygon><polygon points="69.28 101.32 67.12 100.08 36.27 117.89 36.27 120.38 69.28 101.32" style="fill:#fafafa"></polygon><polygon points="69.28 157.44 67.12 156.2 36.27 174.01 36.27 176.5 69.28 157.44" style="fill:#fafafa"></polygon></g></g><g id="freepik--window--inject-74"><path d="M469.9,87.58c0-24.5-16.14-53.68-36-65.17-10.54-6.09-20-6-26.61-.92-8.19,3.4-13.44,12.82-13.44,26.78V190.38L465.89,232l4-2.31Z" style="fill:#e6e6e6"></path><path d="M465.89,232V89.89c0-24.5-16.13-53.68-36-65.17s-36-.95-36,23.55V190.38Z" style="fill:#f5f5f5"></path><path d="M462,89.89V225.17L397.76,188.1V48.28c0-12.25,4.3-20.69,11.55-23.36a15,15,0,0,1,5.25-.9c4.1,0,8.58,1.38,13.32,4.12C446.67,39,462,66.68,462,89.89Z" style="fill:#e0e0e0"></path><polygon points="397.75 188.1 401.83 185.76 461.95 220.48 461.95 225.17 397.75 188.1" style="fill:#ebebeb"></polygon><path d="M462,89.89V220.48l-60.12-34.72V45.92c0-9.73,2.73-17.06,7.49-21a15,15,0,0,1,5.25-.9c4.1,0,8.58,1.38,13.32,4.12C446.67,39,462,66.68,462,89.89Z" style="fill:#fff"></path><polygon points="431.82 207.77 427.88 205.5 427.88 26.71 431.82 26.71 431.82 207.77" style="fill:#f5f5f5"></polygon><path d="M435.77,33.84V205.5l-3.94,2.27V30.69C433.17,31.66,434.48,32.7,435.77,33.84Z" style="fill:#e0e0e0"></path><polygon points="397.75 160.29 427.88 177.69 427.88 182.31 397.75 164.92 397.75 160.29" style="fill:#f5f5f5"></polygon><polygon points="401.83 157.94 397.75 160.29 427.88 177.69 427.88 173.06 401.83 157.94" style="fill:#ebebeb"></polygon><polygon points="431.82 179.96 461.95 197.35 461.95 201.98 431.82 184.59 431.82 179.96" style="fill:#f5f5f5"></polygon><polygon points="435.89 177.61 431.82 179.96 461.95 197.35 461.95 192.73 435.89 177.61" style="fill:#ebebeb"></polygon><polygon points="397.75 57.06 427.88 74.45 427.88 79.07 397.75 61.69 397.75 57.06" style="fill:#f5f5f5"></polygon><polygon points="401.83 54.71 397.75 57.06 427.88 74.45 427.88 69.83 401.83 54.71" style="fill:#ebebeb"></polygon><polygon points="431.82 76.72 461.95 94.12 461.95 98.74 431.82 81.35 431.82 76.72" style="fill:#f5f5f5"></polygon><polygon points="435.89 74.38 431.82 76.72 461.95 94.12 461.95 89.49 435.89 74.38" style="fill:#ebebeb"></polygon></g></g><g id="freepik--Plants--inject-74"><g id="freepik--Plant--inject-74"><g id="freepik--Pot--inject-74"><path d="M438.39,356.8c-9-9.31-14.32-30.8-5.52-38.19h44.76c8.8,7.38,3.5,28.87-5.51,38.18l-.25.26-.31.3c-.25.25-.52.5-.81.74l-.22.17c-.22.17-.44.35-.68.52a12.18,12.18,0,0,1-1.17.75c-7.41,4.33-19.44,4.33-26.86,0h0a11.76,11.76,0,0,1-1.18-.76l-.63-.48-.27-.21c-.28-.24-.54-.47-.78-.71l-.36-.36Z" style="fill:#37474f"></path><path d="M473.74,315.64c10.22,6,10.22,15.63,0,21.59s-26.77,6-37,0-10.21-15.63,0-21.59S463.53,309.68,473.74,315.64Z" style="fill:#455a64"></path><path d="M468.83,318.51c7.5,4.38,7.5,11.48,0,15.86s-19.66,4.38-27.16,0-7.5-11.48,0-15.86S461.33,314.13,468.83,318.51Z" style="fill:#263238"></path><path d="M441.67,326c7.5-4.38,19.66-4.38,27.16,0a12.33,12.33,0,0,1,4.49,4.16,12.43,12.43,0,0,1-4.49,4.17c-7.5,4.38-19.66,4.38-27.16,0a12.52,12.52,0,0,1-4.49-4.17A12.41,12.41,0,0,1,441.67,326Z" style="fill:#fafafa"></path></g><g id="freepik--Leaves--inject-74"><path d="M452.47,275c.33,2.8,2.06,6.41,4.79,7.75a6.52,6.52,0,0,0,6.61-.23c1.2-.95-2.43-.67-4.65-2.25s-2.37-2.61-.15-1.35,6,2.63,8.13,2.39,3.82-2.78,3.49-3.33-2.19.74-5.38.61-5.68-1.53-6.57-2.92-.28-1.15,2.58.21,8.16,2.38,10.09.81,2-4,1.67-4.53-2.71,1.72-6.61,1.61-7.1-1.79-6.7-3.31,1.67-.83,4.69-.36,8.82.57,10.36-.5,1.77-4.6,1.1-4.92-3.15,2-7.12,2.28-5.88-.83-4.38-1.42,9.37-.6,10.42-1.56,1.3-7.3,1.3-7.3-4.61-1.94-5.78-1.79-4.94,4.12-5.82,6-1.52,0-1-1.41,3.09-5,4.73-5.7c-2.16-1-4.75-1.72-5.79,0a26.89,26.89,0,0,0-2.44,9c-.16,2.58-2,5-2.25,1.68s1.06-9.48,3-11c-2.06.18-7.38,2.24-7.32,5.9s1.33,7.14,1.27,8.3-1.39.07-2.26-2.46-1.68-6-.38-7.8c-2.12.69-4.19,1.58-3.11,5.53s3.17,5.19,2.91,5.93-2.78-1.87-3.56-4.13a5.61,5.61,0,0,0-.24,6.18A9.41,9.41,0,0,0,452.47,275Z" style="fill:#263238"></path><path d="M452.47,275c.33,2.8,2.06,6.41,4.79,7.75a6.52,6.52,0,0,0,6.61-.23c1.2-.95-2.43-.67-4.65-2.25s-2.37-2.61-.15-1.35,6,2.63,8.13,2.39,3.82-2.78,3.49-3.33-2.19.74-5.38.61-5.68-1.53-6.57-2.92-.28-1.15,2.58.21,8.16,2.38,10.09.81,2-4,1.67-4.53-2.71,1.72-6.61,1.61-7.1-1.79-6.7-3.31,1.67-.83,4.69-.36,8.82.57,10.36-.5,1.77-4.6,1.1-4.92-3.15,2-7.12,2.28-5.88-.83-4.38-1.42,9.37-.6,10.42-1.56,1.3-7.3,1.3-7.3-4.61-1.94-5.78-1.79-4.94,4.12-5.82,6-1.52,0-1-1.41,3.09-5,4.73-5.7c-2.16-1-4.75-1.72-5.79,0a26.89,26.89,0,0,0-2.44,9c-.16,2.58-2,5-2.25,1.68s1.06-9.48,3-11c-2.06.18-7.38,2.24-7.32,5.9s1.33,7.14,1.27,8.3-1.39.07-2.26-2.46-1.68-6-.38-7.8c-2.12.69-4.19,1.58-3.11,5.53s3.17,5.19,2.91,5.93-2.78-1.87-3.56-4.13a5.61,5.61,0,0,0-.24,6.18A9.41,9.41,0,0,0,452.47,275Z" style="fill:#fff;opacity:0.25"></path><path d="M443.4,285.58a11.45,11.45,0,0,1,6.71,2.7,19.68,19.68,0,0,1,5.74,7.89,44.46,44.46,0,0,1,2.74,11.19,68.57,68.57,0,0,1,.65,11.89,36.92,36.92,0,0,1-2.55,13.15c-.13.3-.45.16-.38-.15a73.3,73.3,0,0,0,1.89-10.8,61.66,61.66,0,0,0-.22-11.12c-.7-6.7-1.87-14.17-6.42-19.44a17.71,17.71,0,0,0-8.15-5.21S443.36,285.58,443.4,285.58Z" style="fill:#455a64"></path><path d="M444.87,297.73c4.89,3.39,7.8,8.95,9.31,14.58a44.66,44.66,0,0,1,1.37,10.22,42.52,42.52,0,0,1-.72,10.39c0,.2-.58.25-.53-.12a51.21,51.21,0,0,0,.53-10.1,53.69,53.69,0,0,0-1.3-9.88,30.89,30.89,0,0,0-8.69-14.93S444.79,297.68,444.87,297.73Z" style="fill:#455a64"></path><path d="M450.18,308.6c0-.16.17,0,.17.08A110,110,0,0,0,451,320.3c.22,1.87.51,3.74.88,5.59s.93,3.8,1.25,5.73c0,.22-.27.65-.41.3-1.45-3.48-2-7.53-2.39-11.25A53.54,53.54,0,0,1,450.18,308.6Z" style="fill:#455a64"></path><path d="M457.44,268.12a32.57,32.57,0,0,0-7.06,11.56,40.53,40.53,0,0,0-1.68,6.1,22.18,22.18,0,0,0-.59,6.38c0,.27.41.56.49.16a28.73,28.73,0,0,0,.28-3.22c.12-1.06.28-2.12.48-3.17a38.79,38.79,0,0,1,1.85-6.46,47.71,47.71,0,0,1,6.29-11.21C457.55,268.19,457.54,268,457.44,268.12Z" style="fill:#455a64"></path><path d="M449.2,289.46c.89,4.67-4.36,10.41-11.12,9.53,2.9-2.14,6.08-5.93,4.68-7.06s-.89,3.55-5.67,6.15c0,0-2.21.28-4.14-2.74,4.86-1.46,8.52-6.6,6.85-6.26-.66.13-2.57,2.65-5.53,3.66s-5.35.33-7.87-3.8c2.24.35,5.56.54,8-1,1.76-1.12,2.48-2-1-1.16s-4.66,1.26-7.37.24-4.12-4.68-4.12-4.68,4.33,1.93,5.84.84-3.93-.55-6.62-2.86a19.27,19.27,0,0,1-4.09-5s2.67-3.08,4-3.6c1.74,2.55,3.84,6,4.46,5.62s.31-2.56-2.59-5.43a3.16,3.16,0,0,1,3.51-1.22s1.69.86,2.78,6.39c.22,1.16,1.16,2.44.26-2a12.94,12.94,0,0,0-2-5.26,5,5,0,0,1,5.68,2.53c3.65,6,3.14,8.22,4,8.15.32,0,.29-1.27-.73-4.6a17.21,17.21,0,0,0-2.31-5s3-1.81,5.81,1.75,3.25,9.21,3.47,9.38c.57.45.91-3.82.21-6.42-.66-2.42-1.08-3.57-1.08-3.57a5.58,5.58,0,0,1,5.28,4c1.46,4.19-.57,8.95.34,9s2-8.23,2-8.23S455.31,286.11,449.2,289.46Z" style="fill:#263238"></path><path d="M449.2,289.46c.89,4.67-4.36,10.41-11.12,9.53,2.9-2.14,6.08-5.93,4.68-7.06s-.89,3.55-5.67,6.15c0,0-2.21.28-4.14-2.74,4.86-1.46,8.52-6.6,6.85-6.26-.66.13-2.57,2.65-5.53,3.66s-5.35.33-7.87-3.8c2.24.35,5.56.54,8-1,1.76-1.12,2.48-2-1-1.16s-4.66,1.26-7.37.24-4.12-4.68-4.12-4.68,4.33,1.93,5.84.84-3.93-.55-6.62-2.86a19.27,19.27,0,0,1-4.09-5s2.67-3.08,4-3.6c1.74,2.55,3.84,6,4.46,5.62s.31-2.56-2.59-5.43a3.16,3.16,0,0,1,3.51-1.22s1.69.86,2.78,6.39c.22,1.16,1.16,2.44.26-2a12.94,12.94,0,0,0-2-5.26,5,5,0,0,1,5.68,2.53c3.65,6,3.14,8.22,4,8.15.32,0,.29-1.27-.73-4.6a17.21,17.21,0,0,0-2.31-5s3-1.81,5.81,1.75,3.25,9.21,3.47,9.38c.57.45.91-3.82.21-6.42-.66-2.42-1.08-3.57-1.08-3.57a5.58,5.58,0,0,1,5.28,4c1.46,4.19-.57,8.95.34,9s2-8.23,2-8.23S455.31,286.11,449.2,289.46Z" style="fill:#fff;opacity:0.2"></path><path d="M459.64,299.75c1.43-2.38,7.12-4.64,15-2.2a21.81,21.81,0,0,1,7.69,4.35c-5.19-1.45-12.23-2.85-13.21-1s2,1.44,4.8,1.29a31,31,0,0,1,9.35.64,16.17,16.17,0,0,1,5.25,6.49c-4.93-3.8-11.63-4.93-14.66-4.38s-3.34,1.74-.91,1.7,7.21-.3,17.45,5.68c0,0,1.78,2.24,1.18,7.09-1.49-2.41-4.2-4.08-6.61-5.44a36.23,36.23,0,0,0-7.71-3.44c-.48-.13-1.45-.38-1.85,0s-.05,1.1.33,1.41a9.28,9.28,0,0,0,2.77,1.36,38.61,38.61,0,0,1,3.77,1.53,39.29,39.29,0,0,1,6,3c1,.68,2.39,4.35,1.19,7.6C487,324,482.26,318.86,478.1,318s.37,1.42,3.33,3.71c2.54,2,7,5.94,7,5.94a67.8,67.8,0,0,1-4.13,7.73,26.27,26.27,0,0,1-8.45-2.65s-.15-8.69-1.91-10.06-1.2,2.25-.32,5.55,1.08,4.5,1.08,4.5-8.63-1.12-11.08-4.9c.43-1.7,2.05-6,3-8.83,1-3,2.54-5.34,1.79-6.17s-2.43,1.32-3.94,4.11a35.21,35.21,0,0,0-3,9s-5.37-2.91-6.81-5.17c-.68-5.58,3.75-10.27,4.6-10.91s.46-3.71-3.58-1a8.87,8.87,0,0,0-4.08,7.43s-4-1.74-4.61-5.87C446.06,303.72,450.33,298.56,459.64,299.75Z" style="fill:#263238"></path><path d="M459.64,299.75c1.43-2.38,7.12-4.64,15-2.2a21.81,21.81,0,0,1,7.69,4.35c-5.19-1.45-12.23-2.85-13.21-1s2,1.44,4.8,1.29a31,31,0,0,1,9.35.64,16.17,16.17,0,0,1,5.25,6.49c-4.93-3.8-11.63-4.93-14.66-4.38s-3.34,1.74-.91,1.7,7.21-.3,17.45,5.68c0,0,1.78,2.24,1.18,7.09-1.49-2.41-4.2-4.08-6.61-5.44a36.23,36.23,0,0,0-7.71-3.44c-.48-.13-1.45-.38-1.85,0s-.05,1.1.33,1.41a9.28,9.28,0,0,0,2.77,1.36,38.61,38.61,0,0,1,3.77,1.53,39.29,39.29,0,0,1,6,3c1,.68,2.39,4.35,1.19,7.6C487,324,482.26,318.86,478.1,318s.37,1.42,3.33,3.71c2.54,2,7,5.94,7,5.94a67.8,67.8,0,0,1-4.13,7.73,26.27,26.27,0,0,1-8.45-2.65s-.15-8.69-1.91-10.06-1.2,2.25-.32,5.55,1.08,4.5,1.08,4.5-8.63-1.12-11.08-4.9c.43-1.7,2.05-6,3-8.83,1-3,2.54-5.34,1.79-6.17s-2.43,1.32-3.94,4.11a35.21,35.21,0,0,0-3,9s-5.37-2.91-6.81-5.17c-.68-5.58,3.75-10.27,4.6-10.91s.46-3.71-3.58-1a8.87,8.87,0,0,0-4.08,7.43s-4-1.74-4.61-5.87C446.06,303.72,450.33,298.56,459.64,299.75Z" style="fill:#fff;opacity:0.25"></path><path d="M442.25,292.87c3.79-.74,9.23,0,12.13,3s3.2,6.76,2.46,8.72-1.88-2.88-4.89-5.12-4.39-2-1.82.37,6,6.76,6.54,9.61-2,6.14-2.88,5.94,0-3.16-1.46-7.27-4.38-6.76-6.57-7.34-1.62.12,1.36,3.28,6.53,9.64,5.29,12.82-4.36,4.33-5.21,4.07,1.1-4.25-.67-9.29-5.32-8.52-7.13-7.35-.38,2.53,1.5,6.27,4.45,11.27,3.69,13.73-5.25,4.24-5.95,3.5,1.25-4.94,0-10.25-3.55-7.32-3.69-5.12,3.15,12.47,2.34,14.25-9,4.77-9,4.77-4.47-5.2-4.77-6.79,3.3-8.19,5.34-10.1-.6-2-2.24-.69-5.23,6.13-5.45,8.57c-2.24-2.41-4.25-5.48-2.42-7.57s7.4-5.66,10.7-7,5.65-4.65,1.25-3.63-11.93,5.36-13.16,8.51c-.63-2.77-.18-10.58,4.62-12s9.87-1.26,11.37-1.83-.49-1.84-4.16-1.91-8.54.33-10.34,2.78c0-3.05.3-6.13,5.91-6.38s8.1,2,9,1.3-3.61-2.84-6.89-2.91a7.69,7.69,0,0,1,8-2.9A13,13,0,0,1,442.25,292.87Z" style="fill:#263238"></path><path d="M459.89,283.14c-.14-4,4.39-7.33,7.26-7.33-2.31,1.78-3.57,4.81-2.4,3.54,2.45-2.67,4.09-4.1,7.91-4.94a6.54,6.54,0,0,1,6.16,1.92,23.46,23.46,0,0,0-7.62,2.17c-1.14.59-4,2.43-.21.77,6-2.62,9.14-1.45,9.14-1.45a8.77,8.77,0,0,1,4.07,3.39c-4.58-2-9.9-.29-11.87.35s-3.25,2.37,0,1.24,9.81-1.47,12.89.89,3.94,7.75,3.94,7.75-11.21-6.58-13.32-4.31c.59,1.49,10.13,3.14,12.58,5.32s2.15,9,2.15,9-7.06,2.52-9.34,2.14-4.88-8.17-6.31-8.89-1.5,6.12,1.82,10.53c0,0-3.21,2-5-.43s-3-8.57-2.52-11.75-1.78-1.59-2.23.88-.31,7.45,1.29,10.09c0,0-4.77-.11-6.72-1.77s-.67-8.9.59-11.12-.91-2.65-2.17-.43-2.47,7.86-1.83,10.19c-3.73-2.95-6.05-7.75-4.17-12.8C455.89,282.78,459.89,283.14,459.89,283.14Z" style="fill:#263238"></path></g></g><g id="freepik--plant--inject-74"><g id="freepik--pot--inject-74"><path d="M37.54,358c-7.18-7.42-11.4-26-4.4-31.93H68.79c7,5.88,2.79,24.5-4.39,31.92l-.19.2-.25.25c-.2.2-.42.39-.65.58l-.17.14c-.18.14-.35.28-.55.41a8.5,8.5,0,0,1-.92.6c-5.91,3.45-15.49,3.45-21.4,0h0a10.61,10.61,0,0,1-.94-.6c-.18-.13-.34-.26-.5-.39l-.21-.17c-.23-.18-.43-.37-.63-.56l-.29-.28Z" style="fill:#37474f"></path><path d="M65.7,323.72c8.13,4.75,8.13,12.45,0,17.2s-21.33,4.75-29.46,0-8.13-12.45,0-17.19S57.56,319,65.7,323.72Z" style="fill:#455a64"></path><path d="M61.78,326c6,3.49,6,9.14,0,12.63s-15.65,3.49-21.63,0-6-9.14,0-12.63S55.81,322.52,61.78,326Z" style="fill:#263238"></path><path d="M40.15,332c6-3.48,15.66-3.48,21.63,0a10,10,0,0,1,3.58,3.32,10,10,0,0,1-3.58,3.32c-6,3.49-15.65,3.49-21.63,0a10,10,0,0,1-3.58-3.32A10,10,0,0,1,40.15,332Z" style="fill:#fafafa"></path></g><path d="M48.57,284.46c-2.73,3-10.33,3.78-13.47-4.22-3-7.5-6.13-14.61-7-17.37a2.84,2.84,0,0,1,1.82-3.66s.21-4.12,7.2-1.33,11.91,7,15,13.89S53.24,283.54,48.57,284.46Z" style="fill:#263238"></path><path d="M48.57,284.46c-2.73,3-10.33,3.78-13.47-4.22-3-7.5-6.13-14.61-7-17.37a2.84,2.84,0,0,1,1.82-3.66s.21-4.12,7.2-1.33,11.91,7,15,13.89S53.24,283.54,48.57,284.46Z" style="fill:#fff;opacity:0.45"></path><path d="M51.59,295a36.41,36.41,0,0,0-.6-4.17,58.8,58.8,0,0,0-2.32-8.05,59.06,59.06,0,0,0-8.09-14.94,51.37,51.37,0,0,0-6.36-7.22c-.08-.06-.13.1-.08.15a63.54,63.54,0,0,1,10,13.76,64,64,0,0,1,5.76,15.61c.35,1.52.67,3.05,1,4.58s.45,3.13.71,4.69c0,.16.27.25.28,0A28.78,28.78,0,0,0,51.59,295Z" style="fill:#263238"></path><path d="M51.59,295a36.41,36.41,0,0,0-.6-4.17,58.8,58.8,0,0,0-2.32-8.05,59.06,59.06,0,0,0-8.09-14.94,51.37,51.37,0,0,0-6.36-7.22c-.08-.06-.13.1-.08.15a63.54,63.54,0,0,1,10,13.76,64,64,0,0,1,5.76,15.61c.35,1.52.67,3.05,1,4.58s.45,3.13.71,4.69c0,.16.27.25.28,0A28.78,28.78,0,0,0,51.59,295Z" style="opacity:0.30000000000000004"></path><path d="M53.93,282.39c-6.28,1.94-10.94-3-9.32-10.64s9.68-16.2,12.72-13.91c1.9-1.9,6.1-1.22,8.07,5S65.58,285.11,53.93,282.39Z" style="fill:#263238"></path><path d="M53.93,282.39c-6.28,1.94-10.94-3-9.32-10.64s9.68-16.2,12.72-13.91c1.9-1.9,6.1-1.22,8.07,5S65.58,285.11,53.93,282.39Z" style="fill:#fff;opacity:0.25"></path><path d="M57.61,262.51a83.77,83.77,0,0,0-4.17,13.8A136,136,0,0,0,51,290.75a226.86,226.86,0,0,0-1.25,28.31c0,2.62.05,5.23.1,7.84s0,5.41.24,8.09c.09,1,1.55.75,1.57-.19.09-4.7-.17-9.43-.22-14.13s0-9.3.09-13.95a195.54,195.54,0,0,1,2.54-28.28c.45-2.6.94-5.2,1.55-7.77s1.42-5.37,2.13-8.05C57.79,262.51,57.67,262.37,57.61,262.51Z" style="fill:#263238"></path><path d="M57.61,262.51a83.77,83.77,0,0,0-4.17,13.8A136,136,0,0,0,51,290.75a226.86,226.86,0,0,0-1.25,28.31c0,2.62.05,5.23.1,7.84s0,5.41.24,8.09c.09,1,1.55.75,1.57-.19.09-4.7-.17-9.43-.22-14.13s0-9.3.09-13.95a195.54,195.54,0,0,1,2.54-28.28c.45-2.6.94-5.2,1.55-7.77s1.42-5.37,2.13-8.05C57.79,262.51,57.67,262.37,57.61,262.51Z" style="opacity:0.30000000000000004"></path><path d="M43.72,304.91c-2.74,3.1-9,2.82-13.24-2.71s-6.74-26.36-.81-25c1.26-2.78,17.64,3.89,19.74,17.48C50.94,304.53,43.72,304.91,43.72,304.91Z" style="fill:#263238"></path><path d="M43.72,304.91c-2.74,3.1-9,2.82-13.24-2.71s-6.74-26.36-.81-25c1.26-2.78,17.64,3.89,19.74,17.48C50.94,304.53,43.72,304.91,43.72,304.91Z" style="fill:#fff;opacity:0.25"></path><path d="M48.62,314.74a29.05,29.05,0,0,0-.81-3.79q-1-3.82-2.44-7.53a79,79,0,0,0-7.32-14.37,70.93,70.93,0,0,0-5.19-7.34c0-.06-.1.08-.07.13,1.46,2.13,2.94,4.24,4.26,6.47a79.13,79.13,0,0,1,3.71,7.14,99.76,99.76,0,0,1,5.41,14.49c.4,1.41.73,2.84,1.14,4.25s1,2.89,1.35,4.36c.05.22.33.3.3,0C48.83,317.29,48.79,316,48.62,314.74Z" style="fill:#263238"></path><path d="M48.62,314.74a29.05,29.05,0,0,0-.81-3.79q-1-3.82-2.44-7.53a79,79,0,0,0-7.32-14.37,70.93,70.93,0,0,0-5.19-7.34c0-.06-.1.08-.07.13,1.46,2.13,2.94,4.24,4.26,6.47a79.13,79.13,0,0,1,3.71,7.14,99.76,99.76,0,0,1,5.41,14.49c.4,1.41.73,2.84,1.14,4.25s1,2.89,1.35,4.36c.05.22.33.3.3,0C48.83,317.29,48.79,316,48.62,314.74Z" style="opacity:0.30000000000000004"></path><path d="M53.75,301.83c-3.59-.82-3.77-5.12.71-10.41s15.78-7.59,16.31-5.36c2.51,0,2.51,7.86-3,15.08S54.08,306.68,53.75,301.83Z" style="fill:#263238"></path><path d="M53.75,301.83c-3.59-.82-3.77-5.12.71-10.41s15.78-7.59,16.31-5.36c2.51,0,2.51,7.86-3,15.08S54.08,306.68,53.75,301.83Z" style="fill:#fff;opacity:0.25"></path><path d="M60.77,294.14a28.52,28.52,0,0,0-10.38,13.4c-.11.31.42.76.54.42a32.93,32.93,0,0,1,9.86-13.74S60.82,294.11,60.77,294.14Z" style="fill:#263238"></path><path d="M60.77,294.14a28.52,28.52,0,0,0-10.38,13.4c-.11.31.42.76.54.42a32.93,32.93,0,0,1,9.86-13.74S60.82,294.11,60.77,294.14Z" style="opacity:0.30000000000000004"></path><path d="M57.84,328.06c-5,2-2.83,7.92,2,12.42A22.23,22.23,0,0,0,75,345.92c3.33-.24,4.18-.7,4.18-.7a37.61,37.61,0,0,0,0-8.22,15.91,15.91,0,0,0-11.71-12.61C59.7,322.3,57.84,325.1,57.84,328.06Z" style="fill:#263238"></path><path d="M57.84,328.06c-5,2-2.83,7.92,2,12.42A22.23,22.23,0,0,0,75,345.92c3.33-.24,4.18-.7,4.18-.7a37.61,37.61,0,0,0,0-8.22,15.91,15.91,0,0,0-11.71-12.61C59.7,322.3,57.84,325.1,57.84,328.06Z" style="fill:#fff;opacity:0.45"></path><path d="M71.59,336.79a40.22,40.22,0,0,0-7.6-7c-2.83-1.86-6.6-3.45-10-2.29-1.32.45-3.36,1.76-3.11,3.38,0,.17.31.57.5.34a13.73,13.73,0,0,1,1.79-2.08,5.27,5.27,0,0,1,2.67-1,12.33,12.33,0,0,1,7,1.58c3.36,1.78,6.07,4.54,8.74,7.19C71.58,336.9,71.61,336.82,71.59,336.79Z" style="fill:#263238"></path><path d="M71.59,336.79a40.22,40.22,0,0,0-7.6-7c-2.83-1.86-6.6-3.45-10-2.29-1.32.45-3.36,1.76-3.11,3.38,0,.17.31.57.5.34a13.73,13.73,0,0,1,1.79-2.08,5.27,5.27,0,0,1,2.67-1,12.33,12.33,0,0,1,7,1.58c3.36,1.78,6.07,4.54,8.74,7.19C71.58,336.9,71.61,336.82,71.59,336.79Z" style="opacity:0.30000000000000004"></path><path d="M38.93,302.63c.48-2.26-2.79-7.68-13-8.71S8.15,297.2,6.61,299.17s-2.31,4.05-.47,4.57,8.21,1.13,12.39,3.06S31.2,314.4,37,312.71,41.82,304.88,38.93,302.63Z" style="fill:#263238"></path><path d="M38.93,302.63c.48-2.26-2.79-7.68-13-8.71S8.15,297.2,6.61,299.17s-2.31,4.05-.47,4.57,8.21,1.13,12.39,3.06S31.2,314.4,37,312.71,41.82,304.88,38.93,302.63Z" style="fill:#fff;opacity:0.45"></path><path d="M46.67,310.51c-4.29-8.87-15.36-11.57-24.4-11.52a35.59,35.59,0,0,0-8.83,1.14s0,.11,0,.1a47,47,0,0,1,14.74-.14,30.56,30.56,0,0,1,13.46,5.19,18.19,18.19,0,0,1,4.82,5.4C46.6,310.9,46.76,310.69,46.67,310.51Z" style="fill:#263238"></path><path d="M46.67,310.51c-4.29-8.87-15.36-11.57-24.4-11.52a35.59,35.59,0,0,0-8.83,1.14s0,.11,0,.1a47,47,0,0,1,14.74-.14,30.56,30.56,0,0,1,13.46,5.19,18.19,18.19,0,0,1,4.82,5.4C46.6,310.9,46.76,310.69,46.67,310.51Z" style="opacity:0.30000000000000004"></path><path d="M62.66,290.75c-.14,3.56,4.88,5.63,9.73,2.55s9.93-6.08,14.42-7.24,6.63-4.83,5.21-6.6-3.68-6.25-15.49-4.79-16,6.79-17.62,10.54S60.88,291.77,62.66,290.75Z" style="fill:#263238"></path><path d="M62.66,290.75c-.14,3.56,4.88,5.63,9.73,2.55s9.93-6.08,14.42-7.24,6.63-4.83,5.21-6.6-3.68-6.25-15.49-4.79-16,6.79-17.62,10.54S60.88,291.77,62.66,290.75Z" style="fill:#fff;opacity:0.45"></path><path d="M81.88,279.44a12.79,12.79,0,0,0-5.06.54,24.93,24.93,0,0,0-4.34,1.55,24,24,0,0,0-7.39,5.35,20.23,20.23,0,0,0-1.67,2A8.9,8.9,0,0,0,62.16,291c-.08.24.27.62.47.38.59-.67,1-1.5,1.57-2.21A24.69,24.69,0,0,1,66.11,287a23.6,23.6,0,0,1,4.55-3.59,28.32,28.32,0,0,1,5-2.46c1-.35,2-.63,2.94-.88a10,10,0,0,1,3.22-.44S81.94,279.45,81.88,279.44Z" style="fill:#263238"></path><path d="M81.88,279.44a12.79,12.79,0,0,0-5.06.54,24.93,24.93,0,0,0-4.34,1.55,24,24,0,0,0-7.39,5.35,20.23,20.23,0,0,0-1.67,2A8.9,8.9,0,0,0,62.16,291c-.08.24.27.62.47.38.59-.67,1-1.5,1.57-2.21A24.69,24.69,0,0,1,66.11,287a23.6,23.6,0,0,1,4.55-3.59,28.32,28.32,0,0,1,5-2.46c1-.35,2-.63,2.94-.88a10,10,0,0,1,3.22-.44S81.94,279.45,81.88,279.44Z" style="opacity:0.30000000000000004"></path><path d="M54.18,310c-1.66-1.66-6.15-1.27-8.28,3.62s2.34,10.25,2.84,11.75c2-1.18,3.65-.48,7.26-1.18a9,9,0,0,0,6.93-9C62.69,310.68,60.8,307.72,54.18,310Z" style="fill:#263238"></path><path d="M54.18,310c-1.66-1.66-6.15-1.27-8.28,3.62s2.34,10.25,2.84,11.75c2-1.18,3.65-.48,7.26-1.18a9,9,0,0,0,6.93-9C62.69,310.68,60.8,307.72,54.18,310Z" style="fill:#fff;opacity:0.45"></path><path d="M54.12,309.48a6.73,6.73,0,0,0-2.2,2.27,12.49,12.49,0,0,0-1.42,2.74,11.62,11.62,0,0,0-.62,6.23c0,.08.08,0,.07,0a12.88,12.88,0,0,1,1-6.16A12.75,12.75,0,0,1,52.49,312a12.11,12.11,0,0,1,1-1.15,6.56,6.56,0,0,0,.95-.95C54.56,309.76,54.37,309.35,54.12,309.48Z" style="fill:#263238"></path><path d="M54.12,309.48a6.73,6.73,0,0,0-2.2,2.27,12.49,12.49,0,0,0-1.42,2.74,11.62,11.62,0,0,0-.62,6.23c0,.08.08,0,.07,0a12.88,12.88,0,0,1,1-6.16A12.75,12.75,0,0,1,52.49,312a12.11,12.11,0,0,1,1-1.15,6.56,6.56,0,0,0,.95-.95C54.56,309.76,54.37,309.35,54.12,309.48Z" style="opacity:0.30000000000000004"></path><path d="M46.39,319.88c-.16-3.64-4.1-6.52-9.72-8.19a15.28,15.28,0,0,0-15.78,4.19c-4.1,4.46-6.22,8.25-4.55,9.31s9.1,3.8,14,5.32,11.23,2,16.09-.91S50.94,321.7,46.39,319.88Z" style="fill:#263238"></path><path d="M46.39,319.88c-.16-3.64-4.1-6.52-9.72-8.19a15.28,15.28,0,0,0-15.78,4.19c-4.1,4.46-6.22,8.25-4.55,9.31s9.1,3.8,14,5.32,11.23,2,16.09-.91S50.94,321.7,46.39,319.88Z" style="fill:#fff;opacity:0.25"></path><path d="M46.7,319.47a15.55,15.55,0,0,0-6.1-1.63,28.36,28.36,0,0,0-6.11.08,37.89,37.89,0,0,0-6.33,1.33c-1.08.32-2.16.68-3.21,1.07A20.41,20.41,0,0,0,22,321.53s-.06.14,0,.12c1-.21,2-.61,3-.92s2.18-.66,3.27-.94a42.89,42.89,0,0,1,6.24-1.18,28,28,0,0,1,6.34,0A37.86,37.86,0,0,1,46.64,320C47,320.15,46.92,319.6,46.7,319.47Z" style="fill:#263238"></path><path d="M46.7,319.47a15.55,15.55,0,0,0-6.1-1.63,28.36,28.36,0,0,0-6.11.08,37.89,37.89,0,0,0-6.33,1.33c-1.08.32-2.16.68-3.21,1.07A20.41,20.41,0,0,0,22,321.53s-.06.14,0,.12c1-.21,2-.61,3-.92s2.18-.66,3.27-.94a42.89,42.89,0,0,1,6.24-1.18,28,28,0,0,1,6.34,0A37.86,37.86,0,0,1,46.64,320C47,320.15,46.92,319.6,46.7,319.47Z" style="opacity:0.30000000000000004"></path><path d="M58,314.46c-4-3.19-2.67-10.84,11.37-11.25S93.43,306.47,93,311c2.26,2.26,1.11,8.59-10.26,10.57S55.07,322.55,58,314.46Z" style="fill:#263238"></path><path d="M58,314.46c-4-3.19-2.67-10.84,11.37-11.25S93.43,306.47,93,311c2.26,2.26,1.11,8.59-10.26,10.57S55.07,322.55,58,314.46Z" style="fill:#fff;opacity:0.25"></path><path d="M86.37,311a60.58,60.58,0,0,0-12.55-.74,48.49,48.49,0,0,0-11.58,1.34,16.88,16.88,0,0,0-2.83,1.05,12.15,12.15,0,0,0-1.23.66c-.32.19-.68.36-.79.73a.38.38,0,0,0,.42.45,15.12,15.12,0,0,0,2.45-1.22,20.91,20.91,0,0,1,2.44-.89,31,31,0,0,1,4.88-1,86.91,86.91,0,0,1,11.85-.65c2.31,0,4.61.21,6.91.39C86.41,311.2,86.44,311.05,86.37,311Z" style="fill:#263238"></path><path d="M86.37,311a60.58,60.58,0,0,0-12.55-.74,48.49,48.49,0,0,0-11.58,1.34,16.88,16.88,0,0,0-2.83,1.05,12.15,12.15,0,0,0-1.23.66c-.32.19-.68.36-.79.73a.38.38,0,0,0,.42.45,15.12,15.12,0,0,0,2.45-1.22,20.91,20.91,0,0,1,2.44-.89,31,31,0,0,1,4.88-1,86.91,86.91,0,0,1,11.85-.65c2.31,0,4.61.21,6.91.39C86.41,311.2,86.44,311.05,86.37,311Z" style="opacity:0.30000000000000004"></path></g></g><g id="freepik--Device--inject-74"><g id="freepik--Mobile--inject-74"><g id="freepik--mobile--inject-74"><path d="M304.22,419.6,204,361.74a13.9,13.9,0,0,1-6.29-10.9V101.6l.49.29c19.34,11.22,87.3,50.31,99.64,57.51a10,10,0,0,1,1.93,1.45,14.09,14.09,0,0,1,4.42,9.49Zm19.41-272.17A18.42,18.42,0,0,0,315.3,133L197.5,65c-4.61-2.65-9.94-1.52-13.18.35s-6.88,3.89-6.88,11.23V364a17.23,17.23,0,0,0,1.13,6.38,15.89,15.89,0,0,0,7.21,8.06l117.8,68c4.6,2.65,10.25.61,13.49-1.26s6.57-5,6.57-10.32Z" style="fill:#263238"></path><path d="M323.63,147.43V434.87c0,5.31-3.34,8.45-6.57,10.32s-8.89,3.91-13.49,1.26l-117.8-68a15.89,15.89,0,0,1-7.21-8.06l.47-.26,1.29-.75a14.56,14.56,0,0,0,5.67,7l115,66.4c4.94,2.85,9,.52,9-5.18V152.43a12.06,12.06,0,0,0-1.71-5.75l12.92-7.46A17,17,0,0,1,323.63,147.43Z" style="fill:#263238"></path><path d="M323.63,147.43V434.87c0,5.31-3.34,8.45-6.57,10.32s-8.89,3.91-13.49,1.26l-117.8-68a15.89,15.89,0,0,1-7.21-8.06l.47-.26,1.29-.75a14.56,14.56,0,0,0,5.67,7l115,66.4c4.94,2.85,9,.52,9-5.18V152.43a12.06,12.06,0,0,0-1.71-5.75l12.92-7.46A17,17,0,0,1,323.63,147.43Z" style="opacity:0.4"></path><path d="M304.22,419.6,204,361.74a13.9,13.9,0,0,1-6.29-10.9V101.6l.49.29c19.34,11.22,87.3,50.31,99.64,57.51a10,10,0,0,1,1.93,1.45,14.09,14.09,0,0,1,4.42,9.49ZM310,152.43a12.92,12.92,0,0,0-5.85-10.12L186,74.1c-3.65-2.11-6.63-.38-6.63,3.83V364.87a12.22,12.22,0,0,0,1,4.5,14.56,14.56,0,0,0,5.67,7l115,66.4c4.94,2.85,9,.52,9-5.18Z" style="fill:#263238"></path><path d="M304.22,419.6,204,361.74a13.9,13.9,0,0,1-6.29-10.9V101.6l.49.29c19.34,11.22,87.3,50.31,99.64,57.51a10,10,0,0,1,1.93,1.45,14.09,14.09,0,0,1,4.42,9.49ZM310,152.43a12.92,12.92,0,0,0-5.85-10.12L186,74.1c-3.65-2.11-6.63-.38-6.63,3.83V364.87a12.22,12.22,0,0,0,1,4.5,14.56,14.56,0,0,0,5.67,7l115,66.4c4.94,2.85,9,.52,9-5.18Z" style="opacity:0.2"></path><path d="M313.84,180.36a7.06,7.06,0,0,1,3.08-5.57,2,2,0,0,1,2.11-.17c.39.23,1.91,1.08,2.31,1.32a2.4,2.4,0,0,1,1,2.19v38.6a7,7,0,0,1-3.08,5.57,2.09,2.09,0,0,1-2,.22c-.43-.23-2-1.13-2.38-1.37a2.4,2.4,0,0,1-1-2.18Z" style="fill:#263238"></path><path d="M313.84,180.36a7.06,7.06,0,0,1,3.08-5.57,2,2,0,0,1,2.11-.17c.39.23,1.91,1.08,2.31,1.32a2.4,2.4,0,0,1,1,2.19v38.6a7,7,0,0,1-3.08,5.57,2.09,2.09,0,0,1-2,.22c-.43-.23-2-1.13-2.38-1.37a2.4,2.4,0,0,1-1-2.18Z" style="opacity:0.2"></path><path d="M316.14,181.68v38.61c0,2.09,1.38,3,3.08,2a7,7,0,0,0,3.08-5.57v-38.6c0-2.1-1.37-3-3.08-2A7.05,7.05,0,0,0,316.14,181.68Z" style="fill:#263238"></path><path d="M316.14,181.68v38.61c0,2.09,1.38,3,3.08,2a7,7,0,0,0,3.08-5.57v-38.6c0-2.1-1.37-3-3.08-2A7.05,7.05,0,0,0,316.14,181.68Z" style="opacity:0.35000000000000003"></path></g><path d="M232.46,109.61c-1.08-.61-2-.11-2,1.13a4.29,4.29,0,0,0,2,3.37c1.07.63,1.94.12,1.94-1.12A4.34,4.34,0,0,0,232.46,109.61Zm24.22,14.74-16-9.24c-.94-.54-1.72-.15-1.72.88a3.72,3.72,0,0,0,1.72,2.87l16,9.24c.94.56,1.72.16,1.72-.87A3.77,3.77,0,0,0,256.68,124.35Z" style="fill:#263238"></path><path d="M232.46,109.61c-1.08-.61-2-.11-2,1.13a4.29,4.29,0,0,0,2,3.37c1.07.63,1.94.12,1.94-1.12A4.34,4.34,0,0,0,232.46,109.61Zm24.22,14.74-16-9.24c-.94-.54-1.72-.15-1.72.88a3.72,3.72,0,0,0,1.72,2.87l16,9.24c.94.56,1.72.16,1.72-.87A3.77,3.77,0,0,0,256.68,124.35Z" style="opacity:0.6000000000000001"></path><path d="M304.22,419.6v7.29c0,4-2.82,5.65-6.29,3.63L191.42,369a13.91,13.91,0,0,1-6.3-10.91V103.51c0-5.07,3.59-7.13,8-4.6L195,100l.66.38.95.55.8.47a2.14,2.14,0,0,0,.3.17V350.84a13.9,13.9,0,0,0,6.29,10.9Z" style="opacity:0.4"></path><path d="M198.46,365.23a13.39,13.39,0,0,1-6.07-10.51V100.11a8.91,8.91,0,0,1,.13-1.5,8.1,8.1,0,0,0-.87-.37,9.2,9.2,0,0,0-.18,1.87V354.72A14.39,14.39,0,0,0,198,366l106.2,61.33c0-.15,0-.3,0-.46v-.59Z" style="fill:#263238;opacity:0.6000000000000001"></path><path d="M198.46,365.23a13.39,13.39,0,0,1-6.07-10.51V100.11a8.91,8.91,0,0,1,.13-1.5,8.1,8.1,0,0,0-.87-.37,9.2,9.2,0,0,0-.18,1.87V354.72A14.39,14.39,0,0,0,198,366l106.2,61.33c0-.15,0-.3,0-.46v-.59Z" style="fill:#fff;opacity:0.2"></path></g></g><g id="freepik--Gift--inject-74"><g id="freepik--gift--inject-74"><g id="freepik--gift--inject-74"><polygon points="251.53 302.56 296.82 276.39 296.82 244.21 297.77 243.66 297.77 230.31 251.53 257.01 251.53 302.56" style="fill:#263238"></polygon><g style="opacity:0.45"><polygon points="251.53 302.56 296.82 276.39 296.82 244.21 297.77 243.66 297.77 230.31 251.53 257.01 251.53 302.56" style="fill:#fff"></polygon></g><polygon points="251.53 270.36 268.87 260.35 296.82 244.21 296.82 246.13 251.53 272.27 251.53 270.36" style="opacity:0.15"></polygon><polygon points="251.53 302.56 206.5 276.58 206.5 244.35 205.29 243.66 205.29 230.31 251.53 257.01 251.53 302.56" style="fill:#263238"></polygon><polygon points="251.53 302.56 206.5 276.58 206.5 244.35 205.29 243.66 205.29 230.31 251.53 257.01 251.53 302.56" style="fill:#fff;opacity:0.30000000000000004"></polygon><polygon points="206.49 244.35 251.53 270.36 251.53 272.27 206.49 246.29 206.49 244.35" style="opacity:0.1"></polygon><polygon points="205.29 230.31 251.53 203.62 297.77 230.31 251.53 257.01 205.29 230.31" style="fill:#263238"></polygon><g style="opacity:0.6000000000000001"><polygon points="205.29 230.31 251.53 203.62 297.77 230.31 251.53 257.01 205.29 230.31" style="fill:#fff"></polygon></g><polygon points="232.75 291.73 232.75 246.16 225.24 241.83 225.24 287.39 232.75 291.73" style="fill:#ebebeb"></polygon><polygon points="232.75 291.73 232.75 246.16 225.24 241.83 225.24 287.39 232.75 291.73" style="fill:#263238"></polygon><polygon points="232.75 291.73 232.75 246.16 225.24 241.83 225.24 287.39 232.75 291.73" style="opacity:0.4"></polygon><polygon points="270.31 291.73 270.31 246.16 277.82 241.83 277.82 287.39 270.31 291.73" style="fill:#263238"></polygon><polygon points="270.31 291.73 270.31 246.16 277.82 241.83 277.82 287.39 270.31 291.73" style="opacity:0.15"></polygon><polygon points="225.24 241.83 271.48 215.13 278.99 219.47 232.75 246.16 225.24 241.83" style="fill:#263238"></polygon><polygon points="250.92 235.68 243.41 231.34 250.92 227 258.43 231.34 250.92 235.68" style="opacity:0.25"></polygon><polygon points="270.31 246.16 224.07 219.47 231.58 215.13 277.82 241.83 270.31 246.16" style="fill:#263238"></polygon></g><path d="M273.18,217.76c-.74,3.15-5.32,12.3-19.91,13.29l-1.48-1.3s16.93-4.24,13.25-19.08Z" style="fill:#263238"></path><path d="M273.18,217.76c-.74,3.15-5.32,12.3-19.91,13.29l-1.48-1.3s16.93-4.24,13.25-19.08Z" style="opacity:0.4"></path><path d="M251.62,232.77s0-9,3.4-14.26,10-7.84,10-7.84a21,21,0,0,1,8.14,7.09,27.56,27.56,0,0,0-11.73,3c-5.71,3-8.18,10.32-8.18,10.32Z" style="fill:#263238"></path><path d="M251.62,232.77s0-9,3.4-14.26,10-7.84,10-7.84a21,21,0,0,1,8.14,7.09,27.56,27.56,0,0,0-11.73,3c-5.71,3-8.18,10.32-8.18,10.32Z" style="opacity:0.15"></path><path d="M261.6,220.66l-5.91-3.1a18.58,18.58,0,0,1,3.34-3.35l7.79,4.46A25.53,25.53,0,0,0,261.6,220.66Z" style="fill:#263238"></path><path d="M274.26,234.24s-10,2.62-22.64-1.47l1-1.72s6.6,1.11,11.26,0,8.64-7.74,8.64-7.74Z" style="fill:#263238"></path><path d="M274.26,234.24s-10,2.62-22.64-1.47l1-1.72s6.6,1.11,11.26,0,8.64-7.74,8.64-7.74Z" style="opacity:0.4"></path><path d="M251.62,232.77s.11-2.45,3.58-5.67c4.54-4.22,13.41-4.22,17.28-3.79a7.87,7.87,0,0,1,3,4.91c.47,2.4-1.21,6-1.21,6A14.56,14.56,0,0,0,263.89,229a14.26,14.26,0,0,0-10.16,3.1Z" style="fill:#263238"></path><path d="M251.62,232.77s.11-2.45,3.58-5.67c4.54-4.22,13.41-4.22,17.28-3.79a7.87,7.87,0,0,1,3,4.91c.47,2.4-1.21,6-1.21,6A14.56,14.56,0,0,0,263.89,229a14.26,14.26,0,0,0-10.16,3.1Z" style="opacity:0.15"></path><path d="M265.06,223.36a34.8,34.8,0,0,1,4.43-.22,8.52,8.52,0,0,1,2,8.58,14.78,14.78,0,0,0-4.63-2.16A9.94,9.94,0,0,0,265.06,223.36Z" style="fill:#263238"></path><path d="M264.69,245.86s-5.39-.66-8.78-4.56a18.89,18.89,0,0,1-4.29-8.53l1.65-1.72a13.07,13.07,0,0,0,6.44,6.67c3.83,1.69,11,1.67,11,1.67Z" style="fill:#263238"></path><path d="M264.69,245.86s-5.39-.66-8.78-4.56a18.89,18.89,0,0,1-4.29-8.53l1.65-1.72a13.07,13.07,0,0,0,6.44,6.67c3.83,1.69,11,1.67,11,1.67Z" style="opacity:0.4"></path><path d="M251.62,232.77l1.65-1.72s6.4-1.3,9.85,0,7.48,6.69,7.55,8.34a10.14,10.14,0,0,1-6,6.47s.33-5.89-4.11-9.35A17.94,17.94,0,0,0,251.62,232.77Z" style="fill:#263238"></path><path d="M251.62,232.77l1.65-1.72s6.4-1.3,9.85,0,7.48,6.69,7.55,8.34a10.14,10.14,0,0,1-6,6.47s.33-5.89-4.11-9.35A17.94,17.94,0,0,0,251.62,232.77Z" style="opacity:0.15"></path><path d="M258.29,235l5.62-3.56a13.64,13.64,0,0,1,3.39,2.69l-5.53,3.49a9.13,9.13,0,0,0-1.19-1.12A19,19,0,0,0,258.29,235Z" style="fill:#263238"></path><path d="M235.42,216.88c-.35,1.72.91,6.46,5.1,9.59s11.27,4.3,11.27,4.3l1-.61s-7-4.41-9.3-8.44-.6-10.5-.6-10.5Z" style="fill:#263238"></path><path d="M235.42,216.88c-.35,1.72.91,6.46,5.1,9.59s11.27,4.3,11.27,4.3l1-.61s-7-4.41-9.3-8.44-.6-10.5-.6-10.5Z" style="opacity:0.4"></path><path d="M251.79,230.77a20.33,20.33,0,0,0-7-9.91c-5.25-3.73-9.35-4-9.35-4a12.16,12.16,0,0,1,7.48-5.66s6,3.53,8.27,8.92a21.43,21.43,0,0,1,1.63,10Z" style="fill:#263238"></path><path d="M251.79,230.77a20.33,20.33,0,0,0-7-9.91c-5.25-3.73-9.35-4-9.35-4a12.16,12.16,0,0,1,7.48-5.66s6,3.53,8.27,8.92a21.43,21.43,0,0,1,1.63,10Z" style="opacity:0.15"></path><path d="M242.1,219.21a22.65,22.65,0,0,0-3.6-1.61,19,19,0,0,1,6.72-4.73,23.78,23.78,0,0,1,3.54,3.43A14.19,14.19,0,0,0,242.1,219.21Z" style="fill:#263238"></path><path d="M229.4,228.09c2.06,2.78,9.17,7.4,21.62,3.63l.77-1.46s-7.08.56-12.92-2.42-6.26-7-6.26-7Z" style="fill:#263238"></path><path d="M229.4,228.09c2.06,2.78,9.17,7.4,21.62,3.63l.77-1.46s-7.08.56-12.92-2.42-6.26-7-6.26-7Z" style="opacity:0.4"></path><path d="M251.79,230.26a18.24,18.24,0,0,0-8.61-8,19,19,0,0,0-10.57-1.42s-3.69,2.89-3.21,7.23a17.91,17.91,0,0,1,10.33-1.57c5.93.86,10.56,3.54,11.29,5.2Z" style="fill:#263238"></path><path d="M251.79,230.26a18.24,18.24,0,0,0-8.61-8,19,19,0,0,0-10.57-1.42s-3.69,2.89-3.21,7.23a17.91,17.91,0,0,1,10.33-1.57c5.93.86,10.56,3.54,11.29,5.2Z" style="opacity:0.15"></path><path d="M235.51,226.42a18.54,18.54,0,0,0-4.25.9,13,13,0,0,1,4.12-6.67,18.24,18.24,0,0,1,2.66.22A12.1,12.1,0,0,0,235.51,226.42Z" style="fill:#263238"></path><path d="M237.25,247.26c3.22.08,13.28-4.47,14.37-14.49l-1.08-2.4s-2.38,5.55-6.91,8.08-11.16,2.49-11.16,2.49Z" style="fill:#263238"></path><path d="M237.25,247.26c3.22.08,13.28-4.47,14.37-14.49l-1.08-2.4s-2.38,5.55-6.91,8.08-11.16,2.49-11.16,2.49Z" style="opacity:0.4"></path><path d="M251.79,230.26s-5.73-.14-9.68,1.46c-7,2.82-9.33,6.13-9.64,9.22a11.77,11.77,0,0,0,4.78,6.32s2.86-7.45,6.38-10.58c4.69-4.18,8-3.91,8-3.91Z" style="fill:#263238"></path><path d="M251.79,230.26s-5.73-.14-9.68,1.46c-7,2.82-9.33,6.13-9.64,9.22a11.77,11.77,0,0,0,4.78,6.32s2.86-7.45,6.38-10.58c4.69-4.18,8-3.91,8-3.91Z" style="opacity:0.15"></path><path d="M238.12,245.23a22.51,22.51,0,0,1-5.2-6.07,9.65,9.65,0,0,1,3.27-4.18,13.82,13.82,0,0,0,6,3.28A35.32,35.32,0,0,0,238.12,245.23Z" style="fill:#263238"></path></g></g><g id="freepik--Button--inject-74"><g id="freepik--button--inject-74"><path d="M289,366l-83-47.88c-1.07-.62-1.94-.11-1.94,1.12v31.68a4.27,4.27,0,0,0,1.94,3.36l83,47.89c1.07.61,1.94.11,1.94-1.13V369.36A4.29,4.29,0,0,0,289,366Z" style="fill:#263238"></path><path d="M290.39,367.45l4.95-2.87a4,4,0,0,1,.57,1.92v31.68a1.39,1.39,0,0,1-.56,1.25c-.36.21-4.59,2.63-4.93,2.85A1.39,1.39,0,0,0,291,401V369.36A4,4,0,0,0,290.39,367.45Z" style="fill:#263238"></path><path d="M290.39,367.45l4.95-2.87a4,4,0,0,1,.57,1.92v31.68a1.39,1.39,0,0,1-.56,1.25c-.36.21-4.59,2.63-4.93,2.85A1.39,1.39,0,0,0,291,401V369.36A4,4,0,0,0,290.39,367.45Z" style="opacity:0.30000000000000004"></path><path d="M204.74,317.94c.69-.42,4.54-2.62,4.85-2.81a1.37,1.37,0,0,1,1.39.12l83,47.89a4.07,4.07,0,0,1,1.38,1.44l-4.95,2.87A4,4,0,0,0,289,366l-83-47.88A1.45,1.45,0,0,0,204.74,317.94Z" style="fill:#263238"></path><path d="M204.74,317.94c.69-.42,4.54-2.62,4.85-2.81a1.37,1.37,0,0,1,1.39.12l83,47.89a4.07,4.07,0,0,1,1.38,1.44l-4.95,2.87A4,4,0,0,0,289,366l-83-47.88A1.45,1.45,0,0,0,204.74,317.94Z" style="fill:#fff;opacity:0.30000000000000004"></path><path d="M221.14,343.13a2.34,2.34,0,0,1,.17.95v8.36a.82.82,0,0,1-.56.85,2.47,2.47,0,0,1-1.38,0,6.12,6.12,0,0,1-1.56-.62,8.69,8.69,0,0,1-3.76-4.63,23.63,23.63,0,0,1-1.22-8.34q0-5.06,1.23-6.81c.81-1.18,2.07-1.27,3.78-.29a8,8,0,0,1,1.59,1.22,8.5,8.5,0,0,1,1.24,1.47,2.45,2.45,0,0,1,.47,1.21,2.49,2.49,0,0,1-.19.87,2.57,2.57,0,0,1-.46.81c-.19.21-.35.27-.5.18a3,3,0,0,1-.38-.43,9.67,9.67,0,0,0-.69-.76,4.59,4.59,0,0,0-.91-.68,1.05,1.05,0,0,0-1.71.52,11.85,11.85,0,0,0-.55,4.4,18.87,18.87,0,0,0,.52,5.14,3.73,3.73,0,0,0,1.54,2.3,2.5,2.5,0,0,0,.75.32v-4.09l-.93-.54a.91.91,0,0,1-.41-.57,4.21,4.21,0,0,1-.12-1.14v-.89a2.79,2.79,0,0,1,.12-1c.09-.17.22-.21.41-.1l3,1.73A1.25,1.25,0,0,1,221.14,343.13Z" style="fill:#fafafa"></path><path d="M223.16,354.69V336.74c0-.61.36-.72,1.06-.31l.77.44a1.75,1.75,0,0,1,1,1.52v18c0,.61-.34.72-1,.32l-.77-.44A1.79,1.79,0,0,1,223.16,354.69Z" style="fill:#fafafa"></path><path d="M228,357.5V339.83a1.2,1.2,0,0,1,.16-.76q.17-.17.51,0l5,2.89a.92.92,0,0,1,.4.57,3.79,3.79,0,0,1,.13,1.14v.87a2.46,2.46,0,0,1-.13,1c-.08.18-.21.21-.4.11L230.87,344v4.1l2.68,1.55a.94.94,0,0,1,.4.56,4.25,4.25,0,0,1,.13,1.14v.87a2.73,2.73,0,0,1-.13,1,.25.25,0,0,1-.4.1l-2.68-1.55v7.35c0,.6-.35.7-1.06.29l-.72-.42A1.76,1.76,0,0,1,228,357.5Z" style="fill:#fafafa"></path><path d="M237.39,362.91V347.79l-2-1.17a.9.9,0,0,1-.4-.56,3.88,3.88,0,0,1-.13-1.14v-.87a2.52,2.52,0,0,1,.13-1c.08-.17.22-.21.4-.1l6.92,4a.91.91,0,0,1,.42.57,3.88,3.88,0,0,1,.13,1.14v.87a2.43,2.43,0,0,1-.13,1c-.08.18-.22.21-.42.1l-2-1.18v15.12c0,.6-.35.69-1.05.29l-.75-.43A1.76,1.76,0,0,1,237.39,362.91Z" style="fill:#fafafa"></path><path d="M276.09,385.35V370.23l-2-1.17a.91.91,0,0,1-.41-.57,4.21,4.21,0,0,1-.12-1.14v-.87a2.76,2.76,0,0,1,.12-1c.09-.17.22-.21.41-.1l6.92,4a1,1,0,0,1,.42.57,4.31,4.31,0,0,1,.12,1.14V372a2.68,2.68,0,0,1-.12,1c-.09.18-.23.21-.42.1l-2-1.18V387c0,.6-.36.69-1.06.29l-.75-.43A1.76,1.76,0,0,1,276.09,385.35Z" style="fill:#fafafa"></path><path d="M247.45,369.37a6.33,6.33,0,0,1-1.28-1.84,3.49,3.49,0,0,1-.23-1.12,3.77,3.77,0,0,1,.27-1.44c.18-.44.38-.59.6-.47a2.28,2.28,0,0,1,.47.55c.21.31.36.53.46.66A4.52,4.52,0,0,0,249,367a1.07,1.07,0,0,0,1,.15c.28-.12.42-.52.42-1.19a4.36,4.36,0,0,0-.22-1.42,5.55,5.55,0,0,0-.53-1.18c-.22-.34-.52-.8-.92-1.37a16.37,16.37,0,0,1-2-3.71,11.67,11.67,0,0,1-.62-4c0-1.68.35-2.79,1.05-3.35s1.62-.49,2.78.18a7.68,7.68,0,0,1,2.38,2.39,2.25,2.25,0,0,1,.33,1.17,4.88,4.88,0,0,1-.21,1.42c-.14.46-.31.63-.52.51a3,3,0,0,1-.53-.53,5,5,0,0,0-1.18-1.1c-.49-.28-.82-.32-1-.1a1.39,1.39,0,0,0-.27.93,4.08,4.08,0,0,0,.35,1.79,13.15,13.15,0,0,0,1.12,1.84l.42.61a14.65,14.65,0,0,1,1.81,3.46,11.35,11.35,0,0,1,.56,3.71,7.09,7.09,0,0,1-.44,2.65,2.2,2.2,0,0,1-1.33,1.38,2.71,2.71,0,0,1-2.2-.46A7.78,7.78,0,0,1,247.45,369.37Z" style="fill:#fafafa"></path><path d="M254.63,373.43a2.28,2.28,0,0,1-.17-.95V355.09a1.19,1.19,0,0,1,.17-.76q.17-.16.51,0l5.37,3.1a1,1,0,0,1,.4.57,3.88,3.88,0,0,1,.13,1.14V360a2.43,2.43,0,0,1-.13,1c-.08.18-.22.21-.4.11l-3.21-1.85v4.06l2.85,1.64a1,1,0,0,1,.4.57,4.25,4.25,0,0,1,.13,1.14v.87a2.63,2.63,0,0,1-.13,1c-.09.18-.22.21-.4.11L257.3,367v4.54l3.23,1.86a1,1,0,0,1,.39.57,4.13,4.13,0,0,1,.12,1.13V376a2.79,2.79,0,0,1-.12,1c-.08.18-.21.21-.39.11L255.14,374A1.21,1.21,0,0,1,254.63,373.43Z" style="fill:#fafafa"></path><path d="M262.7,377.52V359.57c0-.6.35-.7,1.05-.29l.48.27a2,2,0,0,1,.58.49,2.34,2.34,0,0,1,.37.85l3.27,11c.17.59.38,1.43.62,2.55l.08,0c-.1-1-.15-1.79-.15-2.3v-8.94c0-.6.35-.7,1.06-.29l.43.25a1.76,1.76,0,0,1,1.06,1.51v17.95c0,.6-.35.69-1.06.29l-.34-.2a2,2,0,0,1-.6-.5,2.3,2.3,0,0,1-.39-.86l-3.47-11.54c-.11-.34-.28-1-.5-2.08l-.09,0c.1.92.15,1.58.15,2V379c0,.6-.35.7-1.06.29l-.44-.25A1.76,1.76,0,0,1,262.7,377.52Z" style="fill:#fafafa"></path></g></g></svg>